<svg width="1920" height="1143" viewBox="0 0 1920 1143" fill="none" xmlns="http://www.w3.org/2000/svg">
<path d="M280.5 -347.5C272.09 -353.148 323.18 96.6596 412 115C441.119 121.013 475.472 184.399 531 127.5C571.5 86 837 148.5 793.5 -24C1135 447 1083.3 147.853 1197.8 52.3533C1312.3 -43.1467 1302.8 -51.1467 1918.8 219.353C2534.8 489.853 2113.8 305.853 2128.8 641.853C2143.8 977.853 2004.8 1004.35 1929.8 795.853C1854.8 587.353 1736.3 795.853 1094.3 763.853C452.299 731.853 1114 755 1146 646.5C1178 538 1154.3 497.353 1242.8 472.853C1331.3 448.353 1862.17 536.5 1942.8 641.853C1980.3 690.853 1843.3 669.853 1618.3 669.853C1393.3 669.853 1375 651.5 1319 687C1263 722.5 1775.5 795.853 1843.3 737.353C2026.87 578.957 1995.8 795.853 2040.8 942.353C2085.8 1088.85 1942.8 1088.85 1787.3 1116.85C1631.8 1144.85 1400.5 761.038 900.799 1077.35C595.94 1270.33 784.5 980 643.799 865.353C572.554 807.301 664.299 814.353 692.799 752.353C721.299 690.353 928 716.5 924 738C896.483 885.902 962.799 724.353 989.299 641.853C1015.8 559.353 1017 561 964.5 482.5C910.017 401.035 801 472.853 989.299 433.353C1106.52 408.763 1479.3 433.353 1787.3 433.353C2095.3 433.353 1849.3 418.353 1843.3 331.853C1837.3 245.353 1802.3 298.353 1646.3 202.353C1490.3 106.353 1387.3 170.353 1242.8 202.353C1098.3 234.353 1041.5 132.5 784.799 181.853C529.809 230.878 788.5 199 722.799 397.853C675.229 541.831 679.299 433.353 609.799 444.853C540.299 456.353 522.755 399.176 463.299 455.853C435.5 482.353 463.299 514.353 439.299 611.853C415.299 709.353 437.299 707.353 463.299 795.853C489.299 884.353 463.299 902.853 501.299 1015.35C539.299 1127.85 362 1004.5 210 976.5C57.9998 948.5 37.5 936.353 54.2993 763.853C71.0986 591.353 60.6133 767.944 282.5 701.5C464.5 647 314 700.5 341.299 568.353C357.714 488.894 339.799 514.353 277.799 497.353C215.799 480.353 174.299 491.353 189.299 433.353C204.299 375.353 234.299 380.853 226.799 247.353C219.299 113.853 -182.5 167.5 52.5 102C287.5 36.5 231 56.9999 92.0001 -114C-46.9999 -285 9.29925 -591.647 -244.201 61.8532C-497.701 715.353 56.5 944.5 70 963.5C111.067 1004.33 244.9 1077.35 -25.5 1077.35" stroke="#5B1616"/>
</svg>
