<svg width="380" height="261" viewBox="0 0 380 261" fill="none" xmlns="http://www.w3.org/2000/svg">
<path d="M25.9607 19.3762C32.2148 19.3762 37.0116 20.9548 40.3511 24.1122C43.6907 27.2089 45.3604 31.8235 45.3604 37.9561V67.6477H39.1671V60.1793C37.7098 62.6688 35.5543 64.6118 32.7005 66.0083C29.9075 67.4048 26.5679 68.1031 22.6819 68.1031C17.3386 68.1031 13.0883 66.828 9.93094 64.2778C6.77355 61.7276 5.19486 58.3577 5.19486 54.1681C5.19486 50.0999 6.65211 46.8211 9.56662 44.3316C12.5419 41.8422 17.2476 40.5974 23.6838 40.5974H38.8939V37.6829C38.8939 33.554 37.7402 30.427 35.4329 28.3018C33.1256 26.116 29.7557 25.023 25.3232 25.023C22.2872 25.023 19.3727 25.5391 16.5797 26.5713C13.7866 27.5428 11.3882 28.909 9.38447 30.6699L6.46996 25.8427C8.89871 23.7783 11.8132 22.1996 15.2135 21.1066C18.6137 19.953 22.1962 19.3762 25.9607 19.3762ZM23.6838 63.0027C27.3269 63.0027 30.4539 62.183 33.0649 60.5436C35.6758 58.8435 37.6188 56.4147 38.8939 53.2573V45.4246H23.8659C15.6689 45.4246 11.5703 48.2784 11.5703 53.9859C11.5703 56.779 12.6329 58.9953 14.7581 60.6347C16.8833 62.2134 19.8585 63.0027 23.6838 63.0027ZM111.374 0.0675286V67.6477H105.18V58.1756C103.237 61.3937 100.657 63.8528 97.4388 65.5529C94.2814 67.253 90.699 68.1031 86.6915 68.1031C82.1983 68.1031 78.1302 67.0709 74.487 65.0064C70.8439 62.942 67.9901 60.0578 65.9257 56.354C63.8612 52.6501 62.829 48.4302 62.829 43.6941C62.829 38.958 63.8612 34.738 65.9257 31.0342C67.9901 27.3303 70.8439 24.4765 74.487 22.4728C78.1302 20.4084 82.1983 19.3762 86.6915 19.3762C90.5775 19.3762 94.0689 20.1959 97.1655 21.8353C100.323 23.414 102.903 25.7516 104.907 28.8483V0.0675286H111.374ZM87.238 62.3652C90.5775 62.3652 93.5831 61.6062 96.2548 60.0882C98.9871 58.5095 101.112 56.2933 102.63 53.4395C104.209 50.5857 104.998 47.3372 104.998 43.6941C104.998 40.0509 104.209 36.8025 102.63 33.9487C101.112 31.0949 98.9871 28.909 96.2548 27.391C93.5831 25.8124 90.5775 25.023 87.238 25.023C83.8377 25.023 80.7714 25.8124 78.0391 27.391C75.3674 28.909 73.2423 31.0949 71.6636 33.9487C70.1456 36.8025 69.3866 40.0509 69.3866 43.6941C69.3866 47.3372 70.1456 50.5857 71.6636 53.4395C73.2423 56.2933 75.3674 58.5095 78.0391 60.0882C80.7714 61.6062 83.8377 62.3652 87.238 62.3652ZM146.779 68.1031C142.893 68.1031 139.159 67.5566 135.576 66.4637C132.055 65.31 129.292 63.8831 127.288 62.183L130.203 57.0826C132.207 58.6613 134.726 59.9668 137.762 60.999C140.798 61.9705 143.956 62.4562 147.234 62.4562C151.606 62.4562 154.824 61.7883 156.889 60.4525C159.014 59.056 160.077 57.113 160.077 54.6235C160.077 52.8626 159.5 51.4965 158.346 50.525C157.192 49.4927 155.735 48.7338 153.974 48.248C152.213 47.7015 149.876 47.1854 146.961 46.6997C143.075 45.971 139.948 45.2424 137.58 44.5138C135.212 43.7244 133.178 42.419 131.478 40.5974C129.838 38.7759 129.019 36.256 129.019 33.0379C129.019 29.0305 130.689 25.7516 134.028 23.2014C137.368 20.6512 142.013 19.3762 147.963 19.3762C151.06 19.3762 154.156 19.8012 157.253 20.6512C160.35 21.4406 162.9 22.5032 164.904 23.839L162.08 29.0305C158.134 26.2981 153.428 24.9319 147.963 24.9319C143.834 24.9319 140.707 25.6606 138.582 27.1178C136.518 28.5751 135.485 30.4877 135.485 32.8558C135.485 34.6773 136.062 36.1346 137.216 37.2275C138.43 38.3205 139.918 39.1402 141.679 39.6866C143.44 40.1724 145.868 40.6885 148.965 41.235C152.79 41.9636 155.857 42.6922 158.164 43.4209C160.471 44.1495 162.445 45.3942 164.084 47.1551C165.723 48.9159 166.543 51.3447 166.543 54.4413C166.543 58.6309 164.782 61.9705 161.261 64.46C157.8 66.8887 152.972 68.1031 146.779 68.1031ZM202.634 68.1031C198.019 68.1031 193.86 67.0709 190.156 65.0064C186.452 62.8813 183.538 59.9668 181.412 56.2629C179.287 52.559 178.225 48.3694 178.225 43.6941C178.225 39.0187 179.287 34.8291 181.412 31.1253C183.538 27.4214 186.452 24.5373 190.156 22.4728C193.86 20.4084 198.019 19.3762 202.634 19.3762C207.248 19.3762 211.408 20.4084 215.111 22.4728C218.815 24.5373 221.699 27.4214 223.764 31.1253C225.889 34.8291 226.952 39.0187 226.952 43.6941C226.952 48.3694 225.889 52.559 223.764 56.2629C221.699 59.9668 218.815 62.8813 215.111 65.0064C211.408 67.0709 207.248 68.1031 202.634 68.1031ZM202.634 62.3652C206.034 62.3652 209.07 61.6062 211.741 60.0882C214.474 58.5095 216.599 56.2933 218.117 53.4395C219.635 50.5857 220.394 47.3372 220.394 43.6941C220.394 40.0509 219.635 36.8025 218.117 33.9487C216.599 31.0949 214.474 28.909 211.741 27.391C209.07 25.8124 206.034 25.023 202.634 25.023C199.233 25.023 196.167 25.8124 193.435 27.391C190.763 28.909 188.638 31.0949 187.059 33.9487C185.541 36.8025 184.782 40.0509 184.782 43.6941C184.782 47.3372 185.541 50.5857 187.059 53.4395C188.638 56.2933 190.763 58.5095 193.435 60.0882C196.167 61.6062 199.233 62.3652 202.634 62.3652ZM269.117 19.3762C275.128 19.3762 279.894 21.137 283.416 24.6587C286.998 28.1197 288.79 33.1897 288.79 39.8688V67.6477H282.323V40.5063C282.323 35.5274 281.078 31.7325 278.589 29.1215C276.099 26.5106 272.547 25.2052 267.933 25.2052C262.771 25.2052 258.673 26.7535 255.637 29.8502C252.662 32.8861 251.174 37.1061 251.174 42.5101V67.6477H244.708V19.7405H250.901V28.5751C252.662 25.6606 255.091 23.414 258.187 21.8353C261.345 20.1959 264.988 19.3762 269.117 19.3762ZM25.05 101.077C22.2569 101.077 20.1317 101.836 18.6745 103.354C17.2779 104.872 16.5797 107.118 16.5797 110.094V115.74H31.3344V121.205H16.7618V163.648H10.2953V121.205H1.73388V115.74H10.2953V109.82C10.2953 105.449 11.54 101.988 14.0295 99.4374C16.5797 96.8872 20.1621 95.6121 24.7767 95.6121C26.5983 95.6121 28.3591 95.8854 30.0593 96.4318C31.7594 96.9176 33.1863 97.6462 34.3399 98.6177L32.1541 103.445C30.2718 101.866 27.9037 101.077 25.05 101.077ZM63.4011 164.103C58.7864 164.103 54.6272 163.071 50.9233 161.006C47.2195 158.881 44.305 155.967 42.1798 152.263C40.0546 148.559 38.9921 144.369 38.9921 139.694C38.9921 135.019 40.0546 130.829 42.1798 127.125C44.305 123.421 47.2195 120.537 50.9233 118.473C54.6272 116.408 58.7864 115.376 63.4011 115.376C68.0157 115.376 72.175 116.408 75.8788 118.473C79.5827 120.537 82.4668 123.421 84.5313 127.125C86.6564 130.829 87.719 135.019 87.719 139.694C87.719 144.369 86.6564 148.559 84.5313 152.263C82.4668 155.967 79.5827 158.881 75.8788 161.006C72.175 163.071 68.0157 164.103 63.4011 164.103ZM63.4011 158.365C66.8013 158.365 69.8373 157.606 72.5089 156.088C75.2413 154.51 77.3664 152.293 78.8844 149.439C80.4024 146.586 81.1614 143.337 81.1614 139.694C81.1614 136.051 80.4024 132.802 78.8844 129.949C77.3664 127.095 75.2413 124.909 72.5089 123.391C69.8373 121.812 66.8013 121.023 63.4011 121.023C60.0008 121.023 56.9345 121.812 54.2022 123.391C51.5305 124.909 49.4054 127.095 47.8267 129.949C46.3087 132.802 45.5497 136.051 45.5497 139.694C45.5497 143.337 46.3087 146.586 47.8267 149.439C49.4054 152.293 51.5305 154.51 54.2022 156.088C56.9345 157.606 60.0008 158.365 63.4011 158.365ZM111.668 125.122C113.186 121.903 115.433 119.475 118.408 117.835C121.444 116.196 125.178 115.376 129.611 115.376V121.661L128.062 121.569C123.023 121.569 119.076 123.118 116.222 126.214C113.368 129.311 111.942 133.653 111.942 139.239V163.648H105.475V115.74H111.668V125.122ZM205.621 115.376C211.632 115.376 216.338 117.107 219.738 120.568C223.199 124.029 224.929 129.129 224.929 135.869V163.648H218.463V136.506C218.463 131.527 217.248 127.732 214.82 125.122C212.452 122.511 209.082 121.205 204.71 121.205C199.731 121.205 195.815 122.754 192.961 125.85C190.107 128.886 188.68 133.106 188.68 138.51V163.648H182.214V136.506C182.214 131.527 180.999 127.732 178.57 125.122C176.202 122.511 172.802 121.205 168.37 121.205C163.451 121.205 159.535 122.754 156.621 125.85C153.767 128.886 152.34 133.106 152.34 138.51V163.648H145.873V115.74H152.067V124.484C153.767 121.569 156.135 119.323 159.171 117.744C162.207 116.165 165.698 115.376 169.645 115.376C173.652 115.376 177.113 116.226 180.028 117.926C183.003 119.626 185.219 122.146 186.676 125.486C188.437 122.328 190.957 119.869 194.236 118.109C197.575 116.287 201.37 115.376 205.621 115.376ZM247.02 115.74H253.487V163.648H247.02V115.74ZM250.299 105.266C248.963 105.266 247.84 104.811 246.929 103.9C246.018 102.989 245.563 101.897 245.563 100.621C245.563 99.4071 246.018 98.3445 246.929 97.4337C247.84 96.5229 248.963 96.0675 250.299 96.0675C251.635 96.0675 252.758 96.5229 253.669 97.4337C254.58 98.2838 255.035 99.316 255.035 100.53C255.035 101.866 254.58 102.989 253.669 103.9C252.758 104.811 251.635 105.266 250.299 105.266ZM320.389 115.74V157.819C320.389 165.955 318.385 171.966 314.378 175.852C310.431 179.799 304.45 181.772 296.435 181.772C292.003 181.772 287.783 181.104 283.775 179.769C279.828 178.493 276.61 176.702 274.121 174.395L277.4 169.477C279.707 171.541 282.5 173.15 285.779 174.304C289.118 175.458 292.61 176.034 296.253 176.034C302.325 176.034 306.788 174.607 309.641 171.754C312.495 168.961 313.922 164.589 313.922 158.638V152.536C311.918 155.572 309.277 157.879 305.998 159.458C302.78 161.037 299.198 161.826 295.251 161.826C290.758 161.826 286.659 160.855 282.956 158.912C279.312 156.908 276.428 154.145 274.303 150.623C272.239 147.041 271.206 143.003 271.206 138.51C271.206 134.017 272.239 130.009 274.303 126.488C276.428 122.966 279.312 120.234 282.956 118.291C286.599 116.348 290.697 115.376 295.251 115.376C299.319 115.376 302.993 116.196 306.272 117.835C309.55 119.475 312.192 121.843 314.195 124.939V115.74H320.389ZM295.889 156.088C299.35 156.088 302.477 155.36 305.27 153.902C308.063 152.384 310.218 150.29 311.736 147.618C313.315 144.946 314.104 141.91 314.104 138.51C314.104 135.11 313.315 132.104 311.736 129.493C310.218 126.822 308.063 124.757 305.27 123.3C302.537 121.782 299.41 121.023 295.889 121.023C292.428 121.023 289.301 121.752 286.508 123.209C283.775 124.666 281.62 126.731 280.041 129.402C278.523 132.074 277.764 135.11 277.764 138.51C277.764 141.91 278.523 144.946 280.041 147.618C281.62 150.29 283.775 152.384 286.508 153.902C289.301 155.36 292.428 156.088 295.889 156.088ZM359.784 115.376C366.038 115.376 370.835 116.955 374.175 120.112C377.514 123.209 379.184 127.824 379.184 133.956V163.648H372.991V156.179C371.534 158.669 369.378 160.612 366.524 162.008C363.731 163.405 360.392 164.103 356.506 164.103C351.162 164.103 346.912 162.828 343.755 160.278C340.597 157.728 339.019 154.358 339.019 150.168C339.019 146.1 340.476 142.821 343.39 140.332C346.366 137.842 351.071 136.597 357.507 136.597H372.718V133.683C372.718 129.554 371.564 126.427 369.257 124.302C366.949 122.116 363.579 121.023 359.147 121.023C356.111 121.023 353.196 121.539 350.403 122.571C347.61 123.543 345.212 124.909 343.208 126.67L340.294 121.843C342.722 119.778 345.637 118.2 349.037 117.107C352.437 115.953 356.02 115.376 359.784 115.376ZM357.507 159.003C361.151 159.003 364.278 158.183 366.889 156.544C369.499 154.843 371.442 152.415 372.718 149.257V141.425H357.69C349.493 141.425 345.394 144.278 345.394 149.986C345.394 152.779 346.457 154.995 348.582 156.635C350.707 158.213 353.682 159.003 357.507 159.003ZM49.459 211.74L28.1466 259.648H21.4979L0.276625 211.74H7.01643L24.9589 252.544L43.0835 211.74H49.459ZM63.12 211.74H69.5866V259.648H63.12V211.74ZM66.3988 201.266C65.063 201.266 63.9397 200.811 63.0289 199.9C62.1181 198.989 61.6628 197.897 61.6628 196.621C61.6628 195.407 62.1181 194.344 63.0289 193.434C63.9397 192.523 65.063 192.068 66.3988 192.068C67.7346 192.068 68.8579 192.523 69.7687 193.434C70.6795 194.284 71.1349 195.316 71.1349 196.53C71.1349 197.866 70.6795 198.989 69.7687 199.9C68.8579 200.811 67.7346 201.266 66.3988 201.266ZM133.847 237.698H93.7729C94.1372 242.677 96.0498 246.715 99.5108 249.811C102.972 252.847 107.344 254.365 112.626 254.365C115.601 254.365 118.334 253.849 120.823 252.817C123.313 251.724 125.468 250.145 127.29 248.081L130.933 252.27C128.808 254.821 126.136 256.764 122.918 258.099C119.761 259.435 116.269 260.103 112.444 260.103C107.526 260.103 103.154 259.071 99.3287 257.006C95.5641 254.881 92.6192 251.967 90.494 248.263C88.3689 244.559 87.3063 240.369 87.3063 235.694C87.3063 231.019 88.3082 226.829 90.3119 223.125C92.3763 219.421 95.1694 216.537 98.6911 214.473C102.274 212.408 106.281 211.376 110.713 211.376C115.146 211.376 119.123 212.408 122.645 214.473C126.166 216.537 128.929 219.421 130.933 223.125C132.937 226.768 133.938 230.958 133.938 235.694L133.847 237.698ZM110.713 216.932C106.099 216.932 102.213 218.42 99.0554 221.395C95.9588 224.309 94.1979 228.135 93.7729 232.871H127.745C127.32 228.135 125.529 224.309 122.371 221.395C119.275 218.42 115.389 216.932 110.713 216.932ZM151.655 211.74H158.121V259.648H151.655V211.74ZM154.933 201.266C153.598 201.266 152.474 200.811 151.564 199.9C150.653 198.989 150.197 197.897 150.197 196.621C150.197 195.407 150.653 194.344 151.564 193.434C152.474 192.523 153.598 192.068 154.933 192.068C156.269 192.068 157.393 192.523 158.303 193.434C159.214 194.284 159.67 195.316 159.67 196.53C159.67 197.866 159.214 198.989 158.303 199.9C157.393 200.811 156.269 201.266 154.933 201.266ZM186.861 221.122C188.379 217.903 190.626 215.475 193.601 213.835C196.637 212.196 200.371 211.376 204.804 211.376V217.661L203.256 217.569C198.216 217.569 194.269 219.118 191.415 222.214C188.562 225.311 187.135 229.653 187.135 235.239V259.648H180.668V211.74H186.861V221.122ZM237.736 211.376C243.99 211.376 248.787 212.955 252.126 216.112C255.466 219.209 257.136 223.824 257.136 229.956V259.648H250.942V252.179C249.485 254.669 247.329 256.612 244.476 258.008C241.683 259.405 238.343 260.103 234.457 260.103C229.114 260.103 224.863 258.828 221.706 256.278C218.549 253.728 216.97 250.358 216.97 246.168C216.97 242.1 218.427 238.821 221.342 236.332C224.317 233.842 229.023 232.597 235.459 232.597H250.669V229.683C250.669 225.554 249.515 222.427 247.208 220.302C244.901 218.116 241.531 217.023 237.098 217.023C234.062 217.023 231.148 217.539 228.355 218.571C225.562 219.543 223.163 220.909 221.16 222.67L218.245 217.843C220.674 215.778 223.588 214.2 226.989 213.107C230.389 211.953 233.971 211.376 237.736 211.376ZM235.459 255.003C239.102 255.003 242.229 254.183 244.84 252.544C247.451 250.843 249.394 248.415 250.669 245.257V237.425H235.641C227.444 237.425 223.345 240.278 223.345 245.986C223.345 248.779 224.408 250.995 226.533 252.635C228.658 254.213 231.634 255.003 235.459 255.003Z" fill="#5B1616"/>
</svg>
